<?xml version="1.0" standalone="no"?>
<!DOCTYPE svg PUBLIC "-//W3C//DTD SVG 20010904//EN"
 "http://www.w3.org/TR/2001/REC-SVG-20010904/DTD/svg10.dtd">
<svg version="1.0" xmlns="http://www.w3.org/2000/svg"
 width="645.000000pt" height="645.000000pt" viewBox="0 0 645.000000 645.000000"
 preserveAspectRatio="xMidYMid meet">
<metadata>
Created by potrace 1.14, written by Peter Selinger 2001-2017
</metadata>
<g transform="translate(0.000000,645.000000) scale(0.100000,-0.100000)"
fill="#000000" stroke="none">
<path d="M4650 5819 l-75 -19 -125 -128 c-295 -304 -504 -528 -666 -712 -96
-109 -124 -135 -144 -134 -69 3 -307 15 -395 20 -77 4 -127 1 -220 -16 -66
-11 -133 -23 -150 -26 -139 -23 -494 -117 -610 -161 -48 -18 -51 -21 -103
-123 -58 -113 -130 -226 -159 -251 -10 -9 -54 -28 -98 -43 -100 -35 -225 -94
-225 -106 0 -6 -272 -10 -738 -10 l-739 0 -40 -29 c-79 -57 -113 -127 -115
-239 -1 -88 20 -183 65 -287 16 -38 36 -90 45 -115 73 -210 291 -358 662 -449
109 -26 155 -35 305 -56 17 -3 64 -7 105 -11 41 -3 86 -8 100 -10 48 -8 338
-16 620 -18 318 -2 341 -6 418 -72 47 -40 65 -86 63 -161 -1 -65 -45 -183 -99
-268 -37 -58 -41 -61 -118 -87 -88 -30 -195 -54 -300 -65 -135 -15 -631 -8
-731 11 -10 2 -45 7 -78 10 -87 10 -114 14 -280 43 -82 14 -164 28 -181 30
-25 4 -37 -2 -63 -27 -101 -102 -65 -213 100 -307 234 -133 629 -176 1119
-122 52 6 118 13 147 16 60 6 136 -16 253 -75 208 -104 361 -251 462 -441 l34
-64 -113 -281 c-62 -155 -113 -286 -113 -292 0 -15 201 -62 340 -79 113 -14
486 -14 590 -1 25 3 68 8 95 11 40 5 211 35 332 59 136 27 455 129 636 202
210 86 521 237 639 311 21 12 40 23 42 23 8 0 249 151 371 233 103 69 370 261
385 277 3 3 34 27 70 55 63 48 235 191 351 291 32 27 59 56 62 65 5 17 -5 41
-17 40 -23 -3 -40 4 -102 46 -186 125 -441 353 -991 890 l-141 139 -7 69 c-27
295 -71 547 -136 779 -28 97 -30 118 -25 195 4 47 9 97 11 111 2 14 7 52 10
85 3 33 10 87 15 120 5 33 12 80 15 105 8 70 53 292 87 430 29 122 123 425
137 445 4 6 13 29 21 53 13 40 12 44 -9 65 -18 19 -33 22 -94 22 -66 0 -79 -4
-157 -45 -47 -25 -128 -77 -180 -116 -90 -67 -122 -93 -250 -209 l-55 -50 70
80 c39 43 77 87 85 95 8 9 36 39 61 66 58 62 81 106 82 156 2 70 -45 87 -163
57z"/>
</g>
</svg>
